# xmcd CD database file
#
# Track frame offsets:
#	150
#	28771
#	85229
#
# Disc length: 1604 seconds
#
# Revision: 0
# Processed by: cddbd v1.5.1PL0 Copyright (c) Steve Scherf et al.
# Submitted via: CDex 1.51
#
DISCID=1b064203
DTITLE=Chris O'Brien And Cohorts - Brewtown Hoedown Vol. 1 - 04/16/2004
DYEAR=2004
DGENRE=Blues
TTITLE0=What's to Come (Live)
TTITLE1=Sugaree (Live)
TTITLE2=Blue Song (Live)
EXTD=YEAR: 2004
EXTT0=
EXTT1=
EXTT2=
PLAYORDER=
